<svg xmlns="http://www.w3.org/2000/svg" width="20" height="20" viewBox="0 0 24 24" fill="currentColor" aria-hidden="true"><path d="M20.317 4.369A19.79 19.79 0 0 0 16.558 3.2a.074.074 0 0 0-.079.037c-.21.375-.444.864-.608 1.249a18.27 18.27 0 0 0-5.487 0 12.65 12.65 0 0 0-.617-1.249.077.077 0 0 0-.079-.037A19.736 19.736 0 0 0 5.928 4.37a.07.07 0 0 0-.032.027C2.533 9.046 1.62 13.58 2.07 18.057a.082.082 0 0 0 .031.056 19.9 19.9 0 0 0 5.993 3.03.078.078 0 0 0 .084-.028 14.25 14.25 0 0 0 1.226-1.994.076.076 0 0 0-.041-.106 13.1 13.1 0 0 1-1.872-.892.077.077 0 0 1-.008-.128c.126-.094.252-.192.372-.291a.074.074 0 0 1 .077-.01c3.927 1.793 8.18 1.793 12.061 0a.074.074 0 0 1 .078.009c.12.099.246.198.373.292a.077.077 0 0 1-.006.128 12.3 12.3 0 0 1-1.873.891.077.077 0 0 0-.041.107c.36.698.772 1.362 1.225 1.993a.076.076 0 0 0 .084.028 19.84 19.84 0 0 0 6.002-3.03.077.077 0 0 0 .032-.055c.5-5.177-.838-9.674-3.549-13.66a.06.06 0 0 0-.031-.029ZM8.02 15.331c-1.182 0-2.157-1.085-2.157-2.419 0-1.333.955-2.419 2.157-2.419 1.21 0 2.176 1.096 2.157 2.42 0 1.333-.955 2.418-2.157 2.418Zm7.974 0c-1.182 0-2.157-1.085-2.157-2.419 0-1.333.955-2.419 2.157-2.419 1.21 0 2.176 1.096 2.157 2.42 0 1.333-.946 2.418-2.157 2.418Z"/></svg>
