<svg xmlns="http://www.w3.org/2000/svg" width="20" height="20" viewBox="0 0 24 24" fill="currentColor" aria-hidden="true"><path d="M24 11.779c0-1.459-1.192-2.645-2.657-2.645a2.66 2.66 0 0 0-1.835.731c-1.81-1.297-4.286-2.143-7.03-2.244l1.198-5.633 3.927.832a1.876 1.876 0 0 0 1.875 1.811 1.882 1.882 0 0 0 1.881-1.881A1.882 1.882 0 0 0 19.478 0a1.886 1.886 0 0 0-1.673 1.038l-4.382-.927a.658.658 0 0 0-.775.504l-1.337 6.286c-2.788.082-5.305.928-7.143 2.237a2.656 2.656 0 0 0-1.82-.723C.886 8.415-.293 9.6.011 11.038a2.65 2.65 0 0 0 1.483 2.022.7.7 0 0 0-.026.181c0 3.722 4.323 6.745 9.677 6.745 5.354 0 9.676-3.018 9.676-6.745 0-.057-.005-.118-.014-.176A2.65 2.65 0 0 0 24 11.779Zm-16.5 1.844c0-1.038.84-1.881 1.88-1.881a1.88 1.88 0 0 1 1.88 1.881 1.882 1.882 0 0 1-1.88 1.88 1.886 1.886 0 0 1-1.88-1.88Zm10.522 4.342c-1.298 1.297-3.78 1.397-4.504 1.397-.727 0-3.209-.106-4.504-1.397a.486.486 0 0 1 0-.692.487.487 0 0 1 .69 0c.821.82 2.576 1.117 3.815 1.117 1.238 0 2.997-.299 3.816-1.118a.487.487 0 0 1 .69.001.49.49 0 0 1-.003.691Zm-.319-2.46a1.88 1.88 0 0 1-1.88-1.88 1.88 1.88 0 0 1 1.88-1.882c1.04 0 1.88.842 1.88 1.881a1.881 1.881 0 0 1-1.88 1.882Z"/></svg>
